<svg width="58" height="53" viewBox="0 0 58 53" fill="none" xmlns="http://www.w3.org/2000/svg">
<path d="M29.3872 11.8193C31.8699 9.7728 39.7452 8.33163 48.6654 8.27347V11.494V39.6818C40.3377 39.7378 31.7321 41.0432 28.6959 43.4473V12.9029C28.6959 12.9007 28.6936 12.9007 28.6936 12.8985C28.6936 12.8964 28.6959 12.8964 28.6959 12.8942C28.6959 12.5625 28.9302 12.2006 29.3872 11.8193ZM7.57802 8.27347C16.496 8.33163 24.3736 9.7728 26.854 11.8171C27.3133 12.2006 27.5476 12.5625 27.5476 12.8942C27.5476 12.8964 27.5499 12.8964 27.5499 12.8985C27.5499 12.8985 27.5476 12.9007 27.5476 12.9029V43.4473C24.5114 41.0454 15.908 39.7399 7.57802 39.6818V11.494V8.27347Z" fill="#EFECE1"/>
<path d="M42.2358 18.3936V4.29976V1.07922C33.3156 1.13739 25.4403 2.57855 22.9576 4.62504C22.5006 5.00634 22.2663 5.36824 22.2663 5.69999C22.2663 5.70215 22.264 5.70215 22.264 5.7043L22.2663 36.2531C23.5675 35.2228 25.8914 34.3943 28.7781 33.7795M1.14844 1.07922C10.0664 1.13739 17.944 2.57855 20.4244 4.62289C20.8837 5.00634 21.118 5.36824 21.118 5.69999C21.118 5.70215 21.1203 5.70215 21.1203 5.7043C21.1203 5.7043 21.118 5.70646 21.118 5.70861V36.2531C18.0818 33.8511 9.47846 32.5457 1.14844 32.4875V4.29976V1.07922Z" stroke="#1E679B" stroke-linecap="round"/>
<path fill-rule="evenodd" clip-rule="evenodd" d="M36.517 23.4997C36.5104 22.7795 36.4855 22.0494 36.715 21.3815C37.1874 20.0066 38.5319 19.0045 40.0001 19C40.0076 19 40.015 19.0001 40.0225 19.0001C41.4446 19.0132 42.8181 19.9892 43.2939 21.4022C43.4194 21.7747 43.4826 22.1692 43.4838 22.5614V23.5294C45.4432 24.392 47.1254 25.951 48.0734 27.958C48.4822 28.8234 48.7544 29.7575 48.8824 30.7079C49.2533 33.5228 49.6266 36.3374 49.9834 39.1541C50.1486 40.5257 49.058 41.9182 47.6567 41.9855C47.6236 41.9871 47.5905 41.9879 47.5574 41.9883C46.0947 41.9917 44.632 41.9941 43.1692 41.9955C43.1448 42.302 43.0925 42.6029 42.988 42.8892C42.6424 43.8365 41.8426 44.5979 40.892 44.8803C39.4429 45.3108 37.7278 44.5507 37.0867 43.0709C36.9395 42.7311 36.851 42.3648 36.8231 41.9955C35.3636 41.9941 33.904 41.9917 32.4445 41.9883C31.6073 41.9785 30.7984 41.5116 30.3641 40.7897C30.073 40.3058 29.9501 39.7213 30.0184 39.1541C30.3755 36.3374 30.7486 33.5228 31.1195 30.7079C31.4872 27.9776 33.1064 25.4679 35.4351 24.0565C35.783 23.8457 36.1447 23.6598 36.517 23.4997ZM42.1171 41.9964C40.7063 41.9973 39.2956 41.9973 37.885 41.9964C38.0014 43.0522 38.9492 43.9483 40.0424 43.9272C41.0571 43.9076 41.9964 43.0677 42.1171 41.9964ZM32.4423 40.9063C34.0116 40.9246 45.9909 40.9245 47.5596 40.9063C48.3379 40.8935 49.0316 40.1471 48.9351 39.2995C48.5949 36.4729 48.2111 33.6519 47.8311 30.8305C47.4229 27.8634 45.3101 25.2278 42.4906 24.2706C41.7046 24.0038 40.8759 23.8671 40.0481 23.861C40.0323 23.861 40.0165 23.8609 40.0007 23.8609C37.6222 23.8653 35.2682 25.0243 33.7882 26.9449C32.9219 28.0692 32.3603 29.4235 32.1676 30.854C31.7967 33.6687 31.4061 36.4807 31.0667 39.2994C30.9765 40.0928 31.619 40.8928 32.4423 40.9063ZM42.4359 23.1429C42.4459 22.6452 42.4409 22.1569 42.2738 21.6975C41.9216 20.7291 40.9255 20.0449 39.9107 20.0836C38.7165 20.1293 37.6323 21.1811 37.5782 22.4545C37.5767 22.4907 37.576 22.5269 37.5759 22.5631V23.1222C38.3614 22.8972 39.178 22.7805 39.9998 22.7789C40.0092 22.7789 40.0186 22.779 40.028 22.779C40.8425 22.7825 41.6537 22.9085 42.4359 23.1429Z" fill="#1E679B"/>
<path d="M54.1248 42.553C53.2672 45.7538 49.9772 47.6533 46.7764 46.7957" stroke="#1E679B" stroke-linecap="round"/>
<path d="M57.0227 43.3294C55.7362 48.1306 50.8012 50.9798 46 49.6934" stroke="#1E679B" stroke-linecap="round"/>
</svg>
