<svg width="59" height="53" viewBox="0 0 59 53" fill="none" xmlns="http://www.w3.org/2000/svg">
<path d="M18.2271 13L8.18164 22.4545L32.9998 52L57.818 22.4545L48.3635 13H18.2271Z" fill="#EFECE1" stroke="#EFECE1"/>
<path d="M23.5454 24.8181L33 50.8181L42.4545 24.8181" stroke="#EFECE1"/>
<path d="M8.18164 22.4545L23.5453 24.8181H42.4544L57.818 22.4545" stroke="#EFECE1"/>
<path d="M18.2271 13L23.5452 24.8182L32.9998 14.1818L42.4543 24.8182L48.3634 13" stroke="#EFECE1"/>
<path d="M11.2271 7L1.18164 16.4545L25.9998 46L50.818 16.4545L41.3635 7H11.2271Z" stroke="#1E679B"/>
<path d="M16.5454 18.8181L26 44.8181L35.4545 18.8181" stroke="#1E679B"/>
<path d="M1.18164 16.4545L16.5453 18.8181H35.4544L50.818 16.4545" stroke="#1E679B"/>
<path d="M11.2271 7L16.5452 18.8182L25.9998 8.18182L35.4543 18.8182L41.3634 7" stroke="#1E679B"/>
<path d="M50 0V3" stroke="#1E679B"/>
<path d="M50 5V8" stroke="#1E679B"/>
<path d="M46 4L49 4" stroke="#1E679B"/>
<path d="M51 4L54 4" stroke="#1E679B"/>
<path d="M6 32V35" stroke="#1E679B"/>
<path d="M6 37V40" stroke="#1E679B"/>
<path d="M2 36L5 36" stroke="#1E679B"/>
<path d="M7 36L10 36" stroke="#1E679B"/>
</svg>
